<svg fill="none" height="15" viewBox="0 0 15 15" width="15" xmlns="http://www.w3.org/2000/svg"><g fill="#151515"><path d="m1.5 1c-.27614 0-.5.22386-.5.5v2c0 .27614.22386.5.5.5s.5-.22386.5-.5v-1.5h1.5c.27614 0 .5-.22386.5-.5s-.22386-.5-.5-.5z"/><path d="m11.5 1c-.2761 0-.5.22386-.5.5s.2239.5.5.5h1.5v1.5c0 .27614.2239.5.5.5s.5-.22386.5-.5v-2c0-.27614-.2239-.5-.5-.5z"/><path d="m2 11.5c0-.2761-.22386-.5-.5-.5s-.5.2239-.5.5v2c0 .2761.22386.5.5.5h2c.27614 0 .5-.2239.5-.5s-.22386-.5-.5-.5h-1.5z"/><path d="m14 11.5c0-.2761-.2239-.5-.5-.5s-.5.2239-.5.5v1.5h-1.5c-.2761 0-.5.2239-.5.5s.2239.5.5.5h2c.2761 0 .5-.2239.5-.5z"/><g clip-rule="evenodd" fill-rule="evenodd"><path d="m7.85355 2.14645c-.19526-.19527-.51184-.19527-.7071 0l-2 2c-.19527.19526-.19527.51184 0 .7071l2 2c.19526.19527.51184.19527.7071 0l2-2c.19525-.19526.19525-.51184 0-.7071zm.93934 2.35355-1.29289 1.29289-1.29289-1.29289 1.29289-1.29289z"/><path d="m4.85355 5.14645c-.19526-.19527-.51184-.19527-.7071 0l-2 2c-.19527.19526-.19527.51184 0 .7071l2 2c.19526.19525.51184.19525.7071 0l2-2c.19527-.19526.19527-.51184 0-.7071zm-.35355 3.64644-1.29289-1.29289 1.29289-1.29289 1.29289 1.29289z"/><path d="m10.8536 5.14645c-.1953-.19527-.5119-.19527-.7072 0l-1.99995 2c-.19527.19526-.19527.51184 0 .7071l1.99995 2c.1953.19525.5119.19525.7072 0l2-2c.1952-.19526.1952-.51184 0-.7071zm.9393 2.35355-1.2929 1.29289-1.29289-1.29289 1.29289-1.29289z"/><path d="m9.85355 10.1464-2-1.99995c-.19526-.19527-.51184-.19527-.7071 0l-2 1.99995c-.19527.1953-.19527.5119 0 .7072l2 2c.19526.1952.51184.1952.7071 0l2-2c.19525-.1953.19525-.5119 0-.7072zm-2.35355 1.6465-1.29289-1.2929 1.29289-1.29289 1.29289 1.29289z"/></g></g></svg>