<svg id="visual" viewBox="0 0 960 540" width="960" height="540" xmlns="http://www.w3.org/2000/svg" xmlns:xlink="http://www.w3.org/1999/xlink" version="1.1"><path d="M0 330L42 330L42 244L83 244L83 236L125 236L125 276L167 276L167 214L209 214L209 251L250 251L250 283L292 283L292 251L334 251L334 311L376 311L376 289L417 289L417 311L459 311L459 265L501 265L501 322L543 322L543 273L584 273L584 277L626 277L626 311L668 311L668 274L710 274L710 260L751 260L751 210L793 210L793 329L835 329L835 275L877 275L877 285L918 285L918 281L960 281L960 325L960 541L960 541L918 541L918 541L877 541L877 541L835 541L835 541L793 541L793 541L751 541L751 541L710 541L710 541L668 541L668 541L626 541L626 541L584 541L584 541L543 541L543 541L501 541L501 541L459 541L459 541L417 541L417 541L376 541L376 541L334 541L334 541L292 541L292 541L250 541L250 541L209 541L209 541L167 541L167 541L125 541L125 541L83 541L83 541L42 541L42 541L0 541Z" fill="#560090"></path><path d="M0 304L42 304L42 359L83 359L83 286L125 286L125 392L167 392L167 347L209 347L209 333L250 333L250 371L292 371L292 370L334 370L334 376L376 376L376 293L417 293L417 330L459 330L459 338L501 338L501 353L543 353L543 334L584 334L584 280L626 280L626 353L668 353L668 334L710 334L710 340L751 340L751 305L793 305L793 394L835 394L835 353L877 353L877 341L918 341L918 344L960 344L960 391L960 541L960 541L918 541L918 541L877 541L877 541L835 541L835 541L793 541L793 541L751 541L751 541L710 541L710 541L668 541L668 541L626 541L626 541L584 541L584 541L543 541L543 541L501 541L501 541L459 541L459 541L417 541L417 541L376 541L376 541L334 541L334 541L292 541L292 541L250 541L250 541L209 541L209 541L167 541L167 541L125 541L125 541L83 541L83 541L42 541L42 541L0 541Z" fill="#6c00b4"></path><path d="M0 397L42 397L42 370L83 370L83 390L125 390L125 438L167 438L167 402L209 402L209 447L250 447L250 394L292 394L292 403L334 403L334 386L376 386L376 420L417 420L417 431L459 431L459 350L501 350L501 373L543 373L543 441L584 441L584 382L626 382L626 371L668 371L668 429L710 429L710 441L751 441L751 355L793 355L793 376L835 376L835 370L877 370L877 378L918 378L918 391L960 391L960 407L960 541L960 541L918 541L918 541L877 541L877 541L835 541L835 541L793 541L793 541L751 541L751 541L710 541L710 541L668 541L668 541L626 541L626 541L584 541L584 541L543 541L543 541L501 541L501 541L459 541L459 541L417 541L417 541L376 541L376 541L334 541L334 541L292 541L292 541L250 541L250 541L209 541L209 541L167 541L167 541L125 541L125 541L83 541L83 541L42 541L42 541L0 541Z" fill="#8200d9"></path><path d="M0 430L42 430L42 458L83 458L83 473L125 473L125 498L167 498L167 433L209 433L209 491L250 491L250 433L292 433L292 481L334 481L334 430L376 430L376 451L417 451L417 432L459 432L459 433L501 433L501 474L543 474L543 418L584 418L584 442L626 442L626 469L668 469L668 460L710 460L710 437L751 437L751 494L793 494L793 467L835 467L835 421L877 421L877 429L918 429L918 447L960 447L960 453L960 541L960 541L918 541L918 541L877 541L877 541L835 541L835 541L793 541L793 541L751 541L751 541L710 541L710 541L668 541L668 541L626 541L626 541L584 541L584 541L543 541L543 541L501 541L501 541L459 541L459 541L417 541L417 541L376 541L376 541L334 541L334 541L292 541L292 541L250 541L250 541L209 541L209 541L167 541L167 541L125 541L125 541L83 541L83 541L42 541L42 541L0 541Z" fill="#9900ff"></path></svg>