<?xml version="1.0" encoding="UTF-8"?>
<svg xmlns="http://www.w3.org/2000/svg" width="50" height="50" viewBox="0 0 50 50" fill="none">
  <path fill-rule="evenodd" clip-rule="evenodd" d="M44.3886 11.9944L45.5395 9.11612C45.5395 9.11612 44.0747 7.51708 42.2959 5.70483C40.5171 3.89259 36.7503 4.95862 36.7503 4.95862L32.4603 0H24.9267H17.3931L13.1031 4.95862C13.1031 4.95862 9.33631 3.89259 7.55754 5.70483C5.77877 7.51708 4.3139 9.11612 4.3139 9.11612L5.46487 11.9944L4 16.2585C4 16.2585 8.30829 32.8837 8.81315 34.9139C9.80717 38.9115 10.4873 40.4573 13.3124 42.4827C16.1375 44.5082 21.2645 48.026 22.1016 48.5591C22.9387 49.0921 23.985 50 24.9267 50C25.8684 50 26.9148 49.0921 27.7518 48.5591C28.5889 48.026 33.7159 44.5082 36.5411 42.4827C39.3662 40.4573 40.0463 38.9115 41.0403 34.9139C41.5451 32.8837 45.8534 16.2585 45.8534 16.2585L44.3886 11.9944Z" fill="url(#paint0_linear_3581_14313)"></path>
  <path fill-rule="evenodd" clip-rule="evenodd" d="M24.9266 31.1159C25.2134 31.1159 27.051 31.7768 28.5256 32.5542C30 33.3316 31.0687 33.8814 31.4103 34.0992C31.7518 34.3171 31.5435 34.7278 31.2324 34.9519C30.9212 35.176 26.74 38.4747 26.3342 38.8392C25.9283 39.2039 25.332 39.8061 24.9266 39.8061C24.5211 39.8061 23.9247 39.2039 23.5189 38.8392C23.1131 38.4747 18.9319 35.176 18.6207 34.9519C18.3095 34.7278 18.1013 34.3171 18.4429 34.0992C18.7845 33.8814 19.8531 33.3316 21.3277 32.5542C22.8021 31.7768 24.6398 31.1159 24.9266 31.1159ZM24.949 7.62109C25.0898 7.62508 25.8832 7.66435 27.0193 8.05015C28.2749 8.47656 29.6351 9.00957 30.2629 9.00957C30.8907 9.00957 35.5469 8.10345 35.5469 8.10345C35.5469 8.10345 41.0649 14.8994 41.0649 16.3518C41.0649 17.8043 40.3707 18.1876 39.6728 18.9427C38.9749 19.6978 35.9268 22.9954 35.5354 23.4188C35.144 23.8424 34.3291 24.4844 34.8084 25.6401C35.2877 26.7958 35.9948 28.2664 35.2085 29.7579C34.4221 31.2495 33.0749 32.2451 32.2117 32.0805C31.3485 31.9158 29.3212 30.8364 28.5757 30.3434C27.8302 29.8504 25.4673 27.865 25.4673 27.1054C25.4673 26.3458 27.9098 24.9819 28.361 24.672C28.8124 24.3623 30.8705 23.1629 30.9127 22.6921C30.9548 22.2212 30.9387 22.0832 30.3313 20.92C29.7239 19.7566 28.6301 18.2043 28.8122 17.1714C28.9942 16.1386 30.7584 15.6016 32.0173 15.1172C33.276 14.6329 35.6999 13.7181 36.0026 13.5759C36.3055 13.4336 36.2272 13.2981 35.3099 13.2095C34.3928 13.1209 31.7899 12.7689 30.6165 13.1021C29.443 13.4354 27.4382 13.9424 27.2758 14.2112C27.1134 14.4801 26.9702 14.4892 27.137 15.4166C27.3037 16.344 28.1623 20.7943 28.2456 21.5847C28.329 22.3752 28.492 22.8977 27.6554 23.0926C26.8188 23.2875 25.4105 23.6258 24.9266 23.6258C24.4427 23.6258 23.0343 23.2875 22.1978 23.0926C21.3611 22.8977 21.5241 22.3752 21.6075 21.5847C21.6909 20.7943 22.5494 16.344 22.7162 15.4166C22.8829 14.4892 22.7397 14.4801 22.5774 14.2112C22.415 13.9424 20.4101 13.4354 19.2366 13.1021C18.0632 12.7689 15.4604 13.1209 14.5432 13.2095C13.626 13.2981 13.5477 13.4336 13.8505 13.5759C14.1533 13.7181 16.5771 14.6329 17.8359 15.1172C19.0947 15.6016 20.859 16.1386 21.041 17.1714C21.2231 18.2043 20.1291 19.7566 19.5219 20.92C18.9145 22.0832 18.8983 22.2212 18.9405 22.6921C18.9826 23.1629 21.0408 24.3623 21.4921 24.672C21.9434 24.9819 24.3857 26.3458 24.3857 27.1054C24.3857 27.865 22.023 29.8504 21.2775 30.3434C20.532 30.8364 18.5047 31.9158 17.6415 32.0805C16.7783 32.2451 15.4311 31.2495 14.6447 29.7579C13.8584 28.2664 14.5655 26.7958 15.0447 25.6401C15.524 24.4844 14.7092 23.8424 14.3177 23.4188C13.9264 22.9954 10.8782 19.6978 10.1803 18.9427C9.48237 18.1876 8.78833 17.8043 8.78833 16.3518C8.78833 14.8994 14.3063 8.10345 14.3063 8.10345C14.3063 8.10345 18.9625 9.00957 19.5903 9.00957C20.2181 9.00957 21.5783 8.47656 22.8339 8.05015C23.9699 7.66435 24.7634 7.62508 24.9042 7.62109H24.949Z" fill="white"></path>
  <mask id="mask0_3581_14313" style="mask-type:alpha" maskUnits="userSpaceOnUse" x="7" y="0" width="36" height="10">
    <path d="M36.7514 4.95862L32.4614 0H24.9278H17.3942L13.1042 4.95862C13.1042 4.95862 9.33736 3.89259 7.55859 5.70483C7.55859 5.70483 12.581 5.24293 14.3075 8.10339C14.3075 8.10339 18.9637 9.00951 19.5915 9.00951C20.2193 9.00951 21.5795 8.4765 22.8351 8.05009C24.0907 7.62368 24.9278 7.62059 24.9278 7.62059C24.9278 7.62059 25.7648 7.62368 27.0204 8.05009C28.276 8.4765 29.6363 9.00951 30.2641 9.00951C30.8919 9.00951 35.5481 8.10339 35.5481 8.10339C37.2745 5.24293 42.2969 5.70483 42.2969 5.70483C40.5182 3.89259 36.7514 4.95862 36.7514 4.95862Z" fill="white"></path>
  </mask>
  <g mask="url(#mask0_3581_14313)">
    <path d="M36.7501 4.95862L32.4602 0H24.9265H17.3929L13.103 4.95862C13.103 4.95862 9.33614 3.89259 7.55737 5.70483C7.55737 5.70483 12.5798 5.24293 14.3062 8.10339C14.3062 8.10339 18.9624 9.00951 19.5902 9.00951C20.218 9.00951 21.5783 8.4765 22.8339 8.05009C24.0895 7.62368 24.9265 7.62059 24.9265 7.62059C24.9265 7.62059 25.7636 7.62368 27.0192 8.05009C28.2748 8.4765 29.6351 9.00951 30.2629 9.00951C30.8907 9.00951 35.5469 8.10339 35.5469 8.10339C37.2733 5.24293 42.2957 5.70483 42.2957 5.70483C40.517 3.89259 36.7501 4.95862 36.7501 4.95862Z" fill="url(#paint1_linear_3581_14313)"></path>
  </g>
  <defs>
    <linearGradient id="paint0_linear_3581_14313" x1="4" y1="25.3528" x2="45.8534" y2="25.3528" gradientUnits="userSpaceOnUse">
      <stop stop-color="#FF5500"></stop>
      <stop offset="0.409877" stop-color="#FF5500"></stop>
      <stop offset="0.581981" stop-color="#FF2000"></stop>
      <stop offset="1" stop-color="#FF2000"></stop>
    </linearGradient>
    <linearGradient id="paint1_linear_3581_14313" x1="8.3037" y1="4.56832" x2="42.2957" y2="4.56832" gradientUnits="userSpaceOnUse">
      <stop stop-color="#FF452A"></stop>
      <stop offset="1" stop-color="#FF2000"></stop>
    </linearGradient>
  </defs>
</svg>
