<?xml version="1.0" encoding="UTF-8"?>
<svg xmlns="http://www.w3.org/2000/svg" width="50" height="50" viewBox="0 0 50 50" fill="none">
  <g clip-path="url(#clip0_3892_512)">
    <path d="M45.128 37.2106C44.4614 37.5593 43.774 37.8664 43.0696 38.1305C40.8274 38.9694 38.4522 39.3968 36.0583 39.392C26.8167 39.392 18.7664 33.0353 18.7664 24.8781C18.7782 23.784 19.0818 22.7129 19.6459 21.7753C20.21 20.8377 21.0141 20.0677 21.9752 19.5447C13.6163 19.8962 11.468 28.6062 11.468 33.7091C11.468 48.1372 24.766 49.5999 27.6311 49.5999C29.1759 49.5999 31.5058 49.1507 32.9042 48.7094L33.16 48.6234C38.541 46.7633 43.1284 43.1266 46.167 38.3121C46.2601 38.1655 46.3016 37.992 46.2851 37.8191C46.2686 37.6462 46.1949 37.4838 46.0757 37.3575C45.9566 37.2311 45.7987 37.1481 45.6271 37.1215C45.4554 37.0949 45.2798 37.1263 45.128 37.2106Z" fill="url(#paint0_linear_3892_512)"></path>
    <path opacity="0.35" d="M45.128 37.2106C44.4614 37.5593 43.774 37.8664 43.0696 38.1305C40.8274 38.9694 38.4522 39.3968 36.0583 39.392C26.8167 39.392 18.7664 33.0353 18.7664 24.8781C18.7782 23.784 19.0818 22.7129 19.6459 21.7753C20.21 20.8377 21.0141 20.0677 21.9752 19.5447C13.6163 19.8962 11.468 28.6062 11.468 33.7091C11.468 48.1372 24.766 49.5999 27.6311 49.5999C29.1759 49.5999 31.5058 49.1507 32.9042 48.7094L33.16 48.6234C38.541 46.7633 43.1284 43.1266 46.167 38.3121C46.2601 38.1655 46.3016 37.992 46.2851 37.8191C46.2686 37.6462 46.1949 37.4838 46.0757 37.3575C45.9566 37.2311 45.7987 37.1481 45.6271 37.1215C45.4554 37.0949 45.2798 37.1263 45.128 37.2106Z" fill="url(#paint1_radial_3892_512)"></path>
    <path d="M20.6491 47.1471C18.9071 46.066 17.3975 44.6494 16.208 42.9796C14.8522 41.1222 13.9192 38.9906 13.4745 36.7344C13.0297 34.4782 13.084 32.1521 13.6336 29.9191C14.1831 27.6862 15.2145 25.6004 16.6555 23.8083C18.0965 22.0161 19.9122 20.5609 21.9752 19.5448C22.5845 19.2577 23.6255 18.7382 25.0101 18.7636C25.9857 18.7707 26.9463 19.0036 27.8168 19.4441C28.6873 19.8845 29.4439 20.5206 30.0274 21.3024C30.8161 22.3553 31.2509 23.6311 31.2695 24.9465C31.2695 24.9055 36.0466 9.40137 15.6455 9.40137C7.07181 9.40137 0.0214663 17.5372 0.0214663 24.675C-0.0123521 28.4509 0.795584 32.1868 2.38655 35.6113C4.98664 41.1587 9.53348 45.5581 15.1637 47.9742C20.7938 50.3902 27.1153 50.6546 32.9276 48.7172C30.8925 49.3589 28.7424 49.5515 26.6256 49.2817C24.5089 49.012 22.4758 48.2864 20.6667 47.1549L20.6491 47.1471Z" fill="url(#paint2_linear_3892_512)"></path>
    <path opacity="0.41" d="M20.6491 47.1471C18.9071 46.066 17.3975 44.6494 16.208 42.9796C14.8522 41.1222 13.9192 38.9906 13.4745 36.7344C13.0297 34.4782 13.084 32.1521 13.6336 29.9191C14.1831 27.6862 15.2145 25.6004 16.6555 23.8083C18.0965 22.0161 19.9122 20.5609 21.9752 19.5448C22.5845 19.2577 23.6255 18.7382 25.0101 18.7636C25.9857 18.7707 26.9463 19.0036 27.8168 19.4441C28.6873 19.8845 29.4439 20.5206 30.0274 21.3024C30.8161 22.3553 31.2509 23.6311 31.2695 24.9465C31.2695 24.9055 36.0466 9.40137 15.6455 9.40137C7.07181 9.40137 0.0214663 17.5372 0.0214663 24.675C-0.0123521 28.4509 0.795584 32.1868 2.38655 35.6113C4.98664 41.1587 9.53348 45.5581 15.1637 47.9742C20.7938 50.3902 27.1153 50.6546 32.9276 48.7172C30.8925 49.3589 28.7424 49.5515 26.6256 49.2817C24.5089 49.012 22.4758 48.2864 20.6667 47.1549L20.6491 47.1471Z" fill="url(#paint3_radial_3892_512)"></path>
    <path d="M29.7501 29.0709C29.5919 29.276 29.1056 29.5592 29.1056 30.1763C29.1056 30.686 29.4376 31.1762 30.0274 31.5882C32.8358 33.5411 38.1304 33.2833 38.1441 33.2833C40.2251 33.2784 42.2666 32.7152 44.0558 31.6527C45.8608 30.5988 47.3589 29.0913 48.4013 27.2798C49.4438 25.4683 49.9945 23.4157 49.9988 21.3257C50.0496 16.9493 48.4364 14.0394 47.7841 12.7505C43.6457 4.65572 34.7127 1.22377e-07 24.9984 1.22377e-07C18.4289 -0.000649452 12.1231 2.58467 7.44501 7.19679C2.76687 11.8089 0.0923841 18.0771 0 24.6457C0.0937441 17.5097 7.18705 11.7467 15.624 11.7467C16.3076 11.7467 20.2058 11.8131 23.8266 13.7133C27.0178 15.3889 28.6896 17.4121 29.8516 19.4177C31.0586 21.5015 31.2734 24.134 31.2734 25.1827C31.2734 26.2314 30.7383 27.7859 29.7501 29.0709Z" fill="url(#paint4_radial_3892_512)"></path>
    <path d="M29.7501 29.0709C29.5919 29.276 29.1056 29.5592 29.1056 30.1763C29.1056 30.686 29.4376 31.1762 30.0274 31.5882C32.8358 33.5411 38.1304 33.2833 38.1441 33.2833C40.2251 33.2784 42.2666 32.7152 44.0558 31.6527C45.8608 30.5988 47.3589 29.0913 48.4013 27.2798C49.4438 25.4683 49.9945 23.4157 49.9988 21.3257C50.0496 16.9493 48.4364 14.0394 47.7841 12.7505C43.6457 4.65572 34.7127 1.22377e-07 24.9984 1.22377e-07C18.4289 -0.000649452 12.1231 2.58467 7.44501 7.19679C2.76687 11.8089 0.0923841 18.0771 0 24.6457C0.0937441 17.5097 7.18705 11.7467 15.624 11.7467C16.3076 11.7467 20.2058 11.8131 23.8266 13.7133C27.0178 15.3889 28.6896 17.4121 29.8516 19.4177C31.0586 21.5015 31.2734 24.134 31.2734 25.1827C31.2734 26.2314 30.7383 27.7859 29.7501 29.0709Z" fill="url(#paint5_radial_3892_512)"></path>
  </g>
  <defs>
    <linearGradient id="paint0_linear_3892_512" x1="11.468" y1="34.5762" x2="46.2979" y2="34.5762" gradientUnits="userSpaceOnUse">
      <stop stop-color="#0C59A4"></stop>
      <stop offset="1" stop-color="#114A8B"></stop>
    </linearGradient>
    <radialGradient id="paint1_radial_3892_512" cx="0" cy="0" r="1" gradientUnits="userSpaceOnUse" gradientTransform="translate(30.7051 34.8507) scale(18.6277 17.6955)">
      <stop offset="0.72" stop-opacity="0"></stop>
      <stop offset="0.95" stop-opacity="0.53"></stop>
      <stop offset="1"></stop>
    </radialGradient>
    <linearGradient id="paint2_linear_3892_512" x1="29.8301" y1="19.4686" x2="8.07684" y2="43.1643" gradientUnits="userSpaceOnUse">
      <stop stop-color="#1B9DE2"></stop>
      <stop offset="0.16" stop-color="#1595DF"></stop>
      <stop offset="0.67" stop-color="#0680D7"></stop>
      <stop offset="1" stop-color="#0078D4"></stop>
    </linearGradient>
    <radialGradient id="paint3_radial_3892_512" cx="0" cy="0" r="1" gradientUnits="userSpaceOnUse" gradientTransform="translate(13.7871 38.8645) rotate(-81.3839) scale(28.0098 22.6302)">
      <stop offset="0.76" stop-opacity="0"></stop>
      <stop offset="0.95" stop-opacity="0.5"></stop>
      <stop offset="1"></stop>
    </radialGradient>
    <radialGradient id="paint4_radial_3892_512" cx="0" cy="0" r="1" gradientUnits="userSpaceOnUse" gradientTransform="translate(5.05095 9.25224) rotate(92.2907) scale(39.5643 84.2679)">
      <stop stop-color="#35C1F1"></stop>
      <stop offset="0.11" stop-color="#34C1ED"></stop>
      <stop offset="0.23" stop-color="#2FC2DF"></stop>
      <stop offset="0.31" stop-color="#2BC3D2"></stop>
      <stop offset="0.67" stop-color="#36C752"></stop>
    </radialGradient>
    <radialGradient id="paint5_radial_3892_512" cx="0" cy="0" r="1" gradientUnits="userSpaceOnUse" gradientTransform="translate(46.8862 15.1167) rotate(73.739) scale(19.0096 15.4593)">
      <stop stop-color="#66EB6E"></stop>
      <stop offset="1" stop-color="#66EB6E" stop-opacity="0"></stop>
    </radialGradient>
    <clipPath id="clip0_3892_512">
      <rect width="50" height="50" fill="white"></rect>
    </clipPath>
  </defs>
</svg>
